<?xml version="1.0" encoding="utf-8"?>
<!-- Generator: Adobe Illustrator 24.0.1, SVG Export Plug-In . SVG Version: 6.00 Build 0)  -->
<svg version="1.1" id="Layer_1" xmlns="http://www.w3.org/2000/svg" xmlns:xlink="http://www.w3.org/1999/xlink" x="0px" y="0px"
	 viewBox="0 0 286 66" style="enable-background:new 0 0 286 66;" xml:space="preserve">
<style type="text/css">
	.st0{display:none;}
	.st1{display:inline;}
	.st2{fill:#FFFFFF;}
	.st3{display:none;fill:#FFFFFF;}
	.st4{fill:#00A9E0;}
</style>
<g class="st0">
	<g class="st1">
		<path class="st2" d="M257.25-114.39c-1.49-0.64-3.74-1.07-6.66-1.07h-0.36c-1.78,0-4.2,0.22-6.54,0.64
			c-0.39,0.07-0.55,0.27-0.55,0.73v3.33c0,0.42,0.21,0.56,0.68,0.49c2.05-0.31,4.16-0.52,5.79-0.52h0.23c2.3,0,4.16,0.21,5.27,0.96
			c1.11,0.75,1.67,1.87,1.67,4.29v0.72c-1.69-0.36-3.72-0.59-5.58-0.59h-0.5c-3.1,0-6.02,0.75-7.88,2.48
			c-1.43,1.33-2.37,3.34-2.37,5.91v0.22c0,5.16,3.56,8.34,10.8,8.34h1.29c2.85,0,5.55-0.85,7.18-2.19c1.87-1.55,2.6-3.84,2.6-7.5
			v-7.46C262.34-110.7,260.34-113.06,257.25-114.39z M256.79-98.28c0,1.95-0.06,3.1-0.77,3.92c-0.75,0.86-2.09,1.27-3.89,1.27h-0.88
			c-3.33,0-5.27-1.34-5.27-3.9c0-1.17,0.46-2.22,1.18-2.84c0.85-0.73,2.08-1.08,4.2-1.08h0.47c1.61,0,3.44,0.16,4.96,0.56V-98.28z
			 M279.97-115.46h-2.99c-4.29,0-7.64,1.49-9.07,4.6c-0.62,1.34-0.81,3.14-0.81,5.08v16.35c0,0.36,0.18,0.51,0.55,0.51h4.46
			c0.37,0,0.54-0.15,0.54-0.51v-13.68c0-1.93,0.04-3.34,0.14-4.21c0.25-2.27,1.63-3.33,4.84-3.33h2.37c0.38,0,0.55-0.2,0.55-0.57
			v-3.67C280.54-115.27,280.35-115.46,279.97-115.46z M173.05-88.93h4.83c0.42,0,0.6-0.14,0.77-0.45
			c3.13-5.89,7.91-15.94,8.24-25.06c0.01-0.36-0.14-0.52-0.61-0.52l-4.5,0c-0.52,0-0.67,0.17-0.7,0.64
			c-0.21,3.32-0.91,7.18-1.94,10.63c-1.06,3.56-2.4,6.96-3.69,9.48c-1.29-2.52-2.63-5.92-3.69-9.48c-1.03-3.47-1.74-7.35-1.94-10.69
			c-0.03-0.48-0.29-0.57-0.75-0.57h-4.53c-0.48,0-0.61,0.22-0.58,0.71c0.64,8.94,3.41,15.88,8.24,24.89
			C172.37-89.05,172.63-88.93,173.05-88.93z M208.9-100.6c1.2,0.45,2.2,0.81,3.39,1.24c2.55,0.91,3.64,1.62,3.64,3.18
			c0,2.02-1.7,3.09-5.55,3.09h-0.14c-2.17,0-4.66-0.43-6.84-1.13c-0.45-0.15-0.7,0.03-0.7,0.48v3.32c0,0.42,0.07,0.67,0.54,0.83
			c2.09,0.72,4.96,1.12,7.31,1.12h0.18c6.83,0,10.54-3.04,10.54-7.95l0-0.07c0-1.9-0.62-3.61-1.79-4.75
			c-1.14-1.12-2.87-1.99-5.54-2.98c-1.43-0.53-2.53-0.94-3.52-1.3c-2.22-0.81-2.84-1.57-2.84-2.71c0-1.89,1.85-2.63,4.83-2.63
			l0.23,0c1.72,0,3.8,0.25,6.32,0.7c0.47,0.09,0.73-0.02,0.73-0.5v-3.41c0-0.45-0.12-0.58-0.59-0.68c-1.64-0.35-4.62-0.71-6.29-0.71
			h-0.4c-3.49,0-6.07,0.65-7.8,2.15c-1.4,1.22-2.34,3.07-2.34,5.27l0,0.16c0,2.04,0.71,3.69,1.92,4.81
			C205.34-102.02,206.87-101.36,208.9-100.6z M236.34-88.93c0.38,0,0.59-0.21,0.59-0.54v-3.71c0-0.33-0.21-0.54-0.59-0.54h-0.59
			c-1.77,0-2.86-0.43-3.52-1.13c-0.88-0.93-1.06-2.43-1.06-4.22v-11.28h4.9c0.37,0,0.55-0.14,0.55-0.51v-3.6
			c0-0.36-0.18-0.5-0.55-0.5h-4.9v-4.67c0-0.36-0.18-0.51-0.56-0.51h-4.46c-0.37,0-0.54,0.15-0.54,0.51v20.87
			c0,3.63,0.72,5.95,2.32,7.54c1.5,1.49,3.84,2.3,7.23,2.3H236.34z M122.25-115.46h-1.35c-3.87,0-6.44,1.03-7.69,2.55h-0.03
			c-1.25-1.53-3.98-2.55-7.85-2.55h-1.38c-4.37,0-7.94,1.52-9.38,4.63c-0.62,1.34-0.82,3.14-0.82,5.08v16.23
			c0,0.36,0.21,0.6,0.57,0.6h4.4c0.36,0,0.57-0.24,0.57-0.6l0.01-13.52c0-1.93,0.05-3.34,0.14-4.21c0.25-2.27,1.94-3.37,5.15-3.37
			h0.37c3.21,0,4.97,1.1,5.22,3.37c0.1,0.87,0.15,2.27,0.15,4.21v13.52c0,0.36,0.22,0.59,0.58,0.59h4.41c0.36,0,0.57-0.28,0.57-0.64
			l0.01-13.47c0-1.93,0.05-3.34,0.14-4.21c0.25-2.27,2.01-3.37,5.22-3.37h0.37c3.21,0,4.89,1.1,5.14,3.37
			c0.1,0.87,0.14,2.27,0.14,4.21v13.52c0,0.37,0.22,0.59,0.58,0.59h4.41c0.36,0,0.57-0.28,0.57-0.64v-16.19
			c0-1.94-0.21-3.74-0.82-5.08C130.19-113.94,126.61-115.46,122.25-115.46z M160.14-94.78c0.54-1.77,0.84-3.81,0.84-7.18
			c0-3.37-0.3-5.41-0.84-7.18c-1.35-4.52-4.93-6.32-10.72-6.32h-0.69c-5.79,0-9.36,1.8-10.72,6.32c-0.53,1.77-0.83,3.81-0.83,7.18
			c0,3.37,0.3,5.41,0.83,7.18c1.36,4.52,4.93,6.32,10.72,6.32h0.69C155.22-88.45,158.79-90.25,160.14-94.78z M155.13-98.16
			c-0.43,4.22-2.56,4.88-5.98,4.88h-0.14c-3.42,0-5.55-0.66-5.98-4.88c-0.13-1.27-0.24-2.33-0.24-3.8c0-1.47,0.11-2.52,0.24-3.8
			c0.43-4.22,2.56-4.88,5.98-4.88h0.14c3.42,0,5.55,0.66,5.98,4.88c0.13,1.28,0.24,2.33,0.24,3.8
			C155.37-100.49,155.27-99.43,155.13-98.16z M196.47-114.96h-4.46c-0.37,0-0.55,0.14-0.55,0.51l0.01,25.01
			c0,0.36,0.18,0.51,0.55,0.51h4.46c0.37,0,0.55-0.15,0.55-0.51l0-25.01C197.02-114.81,196.84-114.96,196.47-114.96z"/>
		<path class="st2" d="M17.93-124.86c-3.36,0.05-9.56,1.71-12.39,13.28c-1.23,5.04-1.71,10.29-0.65,16.55
			c0.97,5.77,2.7,10.75,3.86,13.49c0.4,0.95,1.02,1.93,1.5,2.54c1.38,1.74,3.68,1.63,4.64,1.16c1.05-0.52,2.26-1.77,1.82-4.63
			c-0.21-1.38-0.82-3.4-1.17-4.52c-1.05-3.44-2.46-7.6-2.58-10.56c-0.16-3.96,1.4-4.48,2.43-4.71c1.74-0.38,3.2,1.53,4.59,3.93
			c1.66,2.86,4.5,7.94,6.81,11.81c2.09,3.5,5.95,7.24,12.15,6.99c6.32-0.26,10.98-2.67,13.38-10.26c1.8-5.68,3.02-9.92,4.99-14.27
			c2.26-5,5.29-7.67,7.83-6.85c2.36,0.76,2.95,3.07,2.98,6.46c0.03,3-0.32,6.31-0.59,8.74c-0.1,0.88-0.28,2.66-0.2,3.64
			c0.14,1.94,0.98,3.87,3.16,4.18c2.32,0.33,4.19-1.53,4.93-3.77c0.29-0.88,0.54-2.24,0.68-3.2c0.68-4.85,0.86-8.11,0.55-13.07
			c-0.36-5.8-1.5-11.1-3.48-15.67c-1.9-4.38-4.94-7.19-8.84-7.43c-4.32-0.27-9.28,2.59-11.88,8.16c-2.4,5.13-4.32,10.39-5.48,13.08
			c-1.18,2.73-2.92,4.4-5.58,4.68c-3.26,0.34-6.07-2.02-8.13-5.4c-1.79-2.94-5.35-8.54-7.25-10.43
			C24.22-122.71,22.18-124.92,17.93-124.86z"/>
	</g>
</g>
<rect x="-45.96" y="-36.5" class="st3" width="366.98" height="139.44"/>
<g>
	<path class="st4" d="M257.25,25.04c-1.49-0.64-3.74-1.07-6.66-1.07h-0.36c-1.78,0-4.2,0.22-6.54,0.64
		c-0.39,0.07-0.55,0.27-0.55,0.73v3.33c0,0.42,0.21,0.56,0.68,0.49c2.05-0.31,4.16-0.52,5.79-0.52h0.23c2.3,0,4.16,0.21,5.27,0.96
		c1.11,0.75,1.67,1.87,1.67,4.29v0.72c-1.69-0.36-3.72-0.59-5.58-0.59h-0.5c-3.1,0-6.02,0.75-7.88,2.48
		c-1.43,1.33-2.37,3.34-2.37,5.91v0.22c0,5.16,3.56,8.34,10.8,8.34h1.29c2.85,0,5.55-0.85,7.18-2.19c1.87-1.55,2.6-3.84,2.6-7.5
		v-7.46C262.34,28.73,260.34,26.38,257.25,25.04z M256.79,41.16c0,1.95-0.06,3.1-0.77,3.92c-0.75,0.86-2.09,1.27-3.89,1.27h-0.88
		c-3.33,0-5.27-1.34-5.27-3.9c0-1.17,0.46-2.22,1.18-2.84c0.85-0.73,2.08-1.08,4.2-1.08h0.47c1.61,0,3.44,0.16,4.96,0.56V41.16z
		 M279.97,23.98h-2.99c-4.29,0-7.64,1.49-9.07,4.6c-0.62,1.34-0.81,3.14-0.81,5.08V50c0,0.36,0.18,0.51,0.55,0.51h4.46
		c0.37,0,0.54-0.15,0.54-0.51V36.32c0-1.93,0.04-3.34,0.14-4.21c0.25-2.27,1.63-3.33,4.84-3.33h2.37c0.38,0,0.55-0.2,0.55-0.57
		v-3.67C280.54,24.16,280.35,23.98,279.97,23.98z M173.05,50.51h4.83c0.42,0,0.6-0.14,0.77-0.45c3.13-5.89,7.91-15.94,8.24-25.06
		c0.01-0.36-0.14-0.52-0.61-0.52l-4.5,0c-0.52,0-0.67,0.17-0.7,0.64c-0.21,3.32-0.91,7.18-1.94,10.63c-1.06,3.56-2.4,6.96-3.69,9.48
		c-1.29-2.52-2.63-5.92-3.69-9.48c-1.03-3.47-1.74-7.35-1.94-10.69c-0.03-0.48-0.29-0.57-0.75-0.57h-4.53
		c-0.48,0-0.61,0.22-0.58,0.71c0.64,8.94,3.41,15.88,8.24,24.89C172.37,50.39,172.63,50.51,173.05,50.51z M208.9,38.83
		c1.2,0.45,2.2,0.81,3.39,1.24c2.55,0.91,3.64,1.62,3.64,3.18c0,2.02-1.7,3.09-5.55,3.09h-0.14c-2.17,0-4.66-0.43-6.84-1.13
		c-0.45-0.15-0.7,0.03-0.7,0.48v3.32c0,0.42,0.07,0.67,0.54,0.83c2.09,0.72,4.96,1.12,7.31,1.12h0.18c6.83,0,10.54-3.04,10.54-7.95
		l0-0.07c0-1.9-0.62-3.61-1.79-4.75c-1.14-1.12-2.87-1.99-5.54-2.98c-1.43-0.53-2.53-0.94-3.52-1.3c-2.22-0.81-2.84-1.57-2.84-2.71
		c0-1.89,1.85-2.63,4.83-2.63l0.23,0c1.72,0,3.8,0.25,6.32,0.7c0.47,0.09,0.73-0.02,0.73-0.5v-3.41c0-0.45-0.12-0.58-0.59-0.68
		c-1.64-0.35-4.62-0.71-6.29-0.71h-0.4c-3.49,0-6.07,0.65-7.8,2.15c-1.4,1.22-2.34,3.07-2.34,5.27l0,0.16
		c0,2.04,0.71,3.69,1.92,4.81C205.34,37.42,206.87,38.08,208.9,38.83z M236.34,50.51c0.38,0,0.59-0.21,0.59-0.54v-3.71
		c0-0.33-0.21-0.54-0.59-0.54h-0.59c-1.77,0-2.86-0.43-3.52-1.13c-0.88-0.93-1.06-2.43-1.06-4.22V29.09h4.9
		c0.37,0,0.55-0.14,0.55-0.51v-3.6c0-0.36-0.18-0.5-0.55-0.5h-4.9V19.8c0-0.36-0.18-0.51-0.56-0.51h-4.46
		c-0.37,0-0.54,0.15-0.54,0.51v20.87c0,3.63,0.72,5.95,2.32,7.54c1.5,1.49,3.84,2.3,7.23,2.3H236.34z M122.25,23.98h-1.35
		c-3.87,0-6.44,1.03-7.69,2.55h-0.03c-1.25-1.53-3.98-2.55-7.85-2.55h-1.38c-4.37,0-7.94,1.52-9.38,4.63
		c-0.62,1.34-0.82,3.14-0.82,5.08v16.23c0,0.36,0.21,0.6,0.57,0.6h4.4c0.36,0,0.57-0.24,0.57-0.6L99.3,36.4
		c0-1.93,0.05-3.34,0.14-4.21c0.25-2.27,1.94-3.37,5.15-3.37h0.37c3.21,0,4.97,1.1,5.22,3.37c0.1,0.87,0.15,2.27,0.15,4.21v13.52
		c0,0.36,0.22,0.59,0.58,0.59h4.41c0.36,0,0.57-0.28,0.57-0.64l0.01-13.47c0-1.93,0.05-3.34,0.14-4.21
		c0.25-2.27,2.01-3.37,5.22-3.37h0.37c3.21,0,4.89,1.1,5.14,3.37c0.1,0.87,0.14,2.27,0.14,4.21v13.52c0,0.37,0.22,0.59,0.58,0.59
		h4.41c0.36,0,0.57-0.28,0.57-0.64V33.69c0-1.94-0.21-3.74-0.82-5.08C130.19,25.5,126.61,23.98,122.25,23.98z M160.14,44.66
		c0.54-1.77,0.84-3.81,0.84-7.18c0-3.37-0.3-5.41-0.84-7.18c-1.35-4.52-4.93-6.32-10.72-6.32h-0.69c-5.79,0-9.36,1.8-10.72,6.32
		c-0.53,1.77-0.83,3.81-0.83,7.18c0,3.37,0.3,5.41,0.83,7.18c1.36,4.52,4.93,6.32,10.72,6.32h0.69
		C155.22,50.98,158.79,49.18,160.14,44.66z M155.13,41.28c-0.43,4.22-2.56,4.88-5.98,4.88h-0.14c-3.42,0-5.55-0.66-5.98-4.88
		c-0.13-1.27-0.24-2.33-0.24-3.8c0-1.47,0.11-2.52,0.24-3.8c0.43-4.22,2.56-4.88,5.98-4.88h0.14c3.42,0,5.55,0.66,5.98,4.88
		c0.13,1.28,0.24,2.33,0.24,3.8C155.37,38.95,155.27,40,155.13,41.28z M196.47,24.48h-4.46c-0.37,0-0.55,0.14-0.55,0.51L191.47,50
		c0,0.36,0.18,0.51,0.55,0.51h4.46c0.37,0,0.55-0.15,0.55-0.51l0-25.01C197.02,24.62,196.84,24.48,196.47,24.48z"/>
	<path class="st4" d="M17.93,14.58c-3.36,0.05-9.56,1.71-12.39,13.28C4.3,32.9,3.83,38.15,4.88,44.41
		c0.97,5.77,2.7,10.75,3.86,13.49c0.4,0.95,1.02,1.93,1.5,2.54c1.38,1.74,3.68,1.63,4.64,1.16c1.05-0.52,2.26-1.77,1.82-4.63
		c-0.21-1.38-0.82-3.4-1.17-4.52c-1.05-3.44-2.46-7.6-2.58-10.56c-0.16-3.96,1.4-4.48,2.43-4.71c1.74-0.38,3.2,1.53,4.59,3.93
		c1.66,2.86,4.5,7.94,6.81,11.81c2.09,3.5,5.95,7.24,12.15,6.99c6.32-0.26,10.98-2.67,13.38-10.26c1.8-5.68,3.02-9.92,4.99-14.27
		c2.26-5,5.29-7.67,7.83-6.85c2.36,0.76,2.95,3.07,2.98,6.46c0.03,3-0.32,6.31-0.59,8.74c-0.1,0.88-0.28,2.66-0.2,3.64
		c0.14,1.94,0.98,3.87,3.16,4.18c2.32,0.33,4.19-1.53,4.93-3.77c0.29-0.88,0.54-2.24,0.68-3.2c0.68-4.85,0.86-8.11,0.55-13.07
		c-0.36-5.8-1.5-11.1-3.48-15.67c-1.9-4.38-4.94-7.19-8.84-7.43c-4.32-0.27-9.28,2.59-11.88,8.16c-2.4,5.13-4.32,10.39-5.48,13.08
		c-1.18,2.73-2.92,4.4-5.58,4.68c-3.26,0.34-6.07-2.02-8.13-5.4c-1.79-2.94-5.35-8.54-7.25-10.43
		C24.22,16.73,22.18,14.51,17.93,14.58z"/>
</g>
</svg>
